<svg width="68" height="67" viewBox="0 0 68 67" fill="none" xmlns="http://www.w3.org/2000/svg">
<circle cx="33.8333" cy="33.5006" r="32.0833" fill="url(#paint0_linear)" stroke="#DCDBFF" stroke-width="2.5"/>
<path d="M45.4494 13.7165C45.3756 13.2612 44.9464 12.9532 44.4922 13.0287L17.1908 17.5209C16.7366 17.5964 16.4293 18.0249 16.5046 18.4802L21.9912 51.9707C22.0665 52.4259 22.4941 52.734 22.9483 52.6585L44.4328 49.1238L49.9819 41.3784L45.4494 13.7165Z" fill="white" fill-opacity="0.79"/>
<path d="M43.8319 43.2131L44.736 48.8159L49.9821 41.3732L44.4821 42.2927C44.0526 42.3638 43.7621 42.7771 43.8319 43.2131Z" fill="#9B9FFF"/>
<path d="M43.9592 33.3713L28.0508 35.999L28.2304 37.1013L44.1388 34.4736L43.9592 33.3713Z" fill="url(#paint1_linear)"/>
<path d="M36.0282 30.0613L27.2827 31.5059L27.4624 32.6081L36.2078 31.1636L36.0282 30.0613Z" fill="url(#paint2_linear)"/>
<path d="M42.7058 26.1577L26.7974 28.7854L26.977 29.8877L42.8854 27.26L42.7058 26.1577Z" fill="url(#paint3_linear)"/>
<path d="M34.2513 22.7263L25.9814 24.0923L26.1611 25.1946L34.431 23.8286L34.2513 22.7263Z" fill="url(#paint4_linear)"/>
<path d="M41.4167 18.7404L25.5083 21.3682L25.688 22.4704L41.5963 19.8427L41.4167 18.7404Z" fill="url(#paint5_linear)"/>
<path d="M38.3076 36.9339L28.5073 38.5527L28.687 39.655L38.4872 38.0362L38.3076 36.9339Z" fill="url(#paint6_linear)"/>
<path d="M25.2439 37.3306C25.579 37.4795 25.8209 37.7306 25.9697 38.0837L25.195 38.2512C25.0907 38.0852 24.9442 37.9693 24.7598 37.9026C24.5754 37.8359 24.3673 37.8235 24.1279 37.8753C23.9321 37.9176 23.7642 37.999 23.6205 38.1244C23.4762 38.2458 23.3724 38.3994 23.309 38.5853C23.2457 38.7711 23.2292 38.9714 23.2608 39.1942C23.2918 39.4129 23.363 39.5984 23.4732 39.7426C23.5839 39.8908 23.7238 39.9917 23.8929 40.0454C24.062 40.099 24.2428 40.109 24.4387 40.0667C24.6737 40.0159 24.8709 39.9199 25.0254 39.7759C25.1805 39.6357 25.2821 39.4662 25.3388 39.2654L26.1135 39.0979C26.0708 39.4924 25.9123 39.83 25.6381 40.1107C25.3639 40.3913 25.0011 40.5845 24.5397 40.6843C24.1872 40.7605 23.868 40.7558 23.5773 40.667C23.2872 40.5821 23.0495 40.4245 22.8643 40.194C22.6791 39.9635 22.5634 39.6852 22.5166 39.3551C22.4692 39.021 22.5009 38.7067 22.6122 38.4162C22.723 38.1217 22.9031 37.8737 23.1483 37.6731C23.3978 37.4716 23.6961 37.3292 24.053 37.252C24.5143 37.1523 24.9082 37.1778 25.2439 37.3306Z" fill="url(#paint7_linear)"/>
<path d="M23.8322 31.3171C23.9899 31.44 24.0813 31.6063 24.1103 31.8108C24.1507 32.0955 24.0772 32.3429 23.8949 32.5559C23.7076 32.7659 23.4167 32.9156 23.0218 33.001L21.4247 33.3465L20.9424 29.9458L22.5045 29.6079C22.8818 29.5263 23.1778 29.5408 23.4007 29.6455C23.6236 29.7502 23.7547 29.9409 23.7933 30.2136C23.8235 30.4262 23.7865 30.6119 23.6874 30.7739C23.5882 30.9359 23.4428 31.0583 23.251 31.1411C23.4811 31.1368 23.6746 31.1941 23.8322 31.3171ZM21.8858 31.209L22.5528 31.0648C22.7371 31.0249 22.8768 30.9575 22.9625 30.8604C23.0482 30.7633 23.0811 30.6446 23.0612 30.5043C23.0413 30.3639 22.9777 30.2661 22.8742 30.2058C22.7668 30.1505 22.6163 30.1417 22.4189 30.1844L21.7607 30.3268L21.8858 31.209ZM23.2291 32.2618C23.323 32.1588 23.3597 32.0351 23.3381 31.8827C23.3165 31.7304 23.2473 31.6254 23.1263 31.569C23.0052 31.5125 22.8498 31.5007 22.6523 31.5434L21.9503 31.6952L22.0828 32.6296L22.7892 32.4768C22.9911 32.4331 23.1346 32.3608 23.2291 32.2618Z" fill="url(#paint8_linear)"/>
<path d="M22.53 25.027L21.1492 25.2669L21.0457 26.1159L20.3228 26.2415L20.8989 22.0447L21.6827 21.9085L23.6367 25.6657L22.9097 25.792L22.53 25.027ZM22.2417 24.4513L21.4388 22.8407L21.2264 24.6277L22.2417 24.4513Z" fill="url(#paint9_linear)"/>
<path d="M45.8281 36.1478C48.7036 38.2397 51.4681 40.387 54.3107 42.4706C54.7262 41.9297 55.1519 41.3784 55.5921 40.8149C52.6919 38.7251 49.8473 36.4687 46.982 34.3789C46.943 34.4365 46.9039 34.492 46.8648 34.5517C46.5151 35.0968 46.1675 35.6295 45.8281 36.1478Z" fill="#282828"/>
<path d="M44.3862 50.5602C45.1987 51.2493 45.9659 51.998 46.692 52.794C47.9714 50.9942 50.6761 47.1931 54.3086 42.4705C53.3233 41.7486 52.3484 41.0184 51.3755 40.2861C48.9566 43.6697 46.7578 47.1252 44.3862 50.5602Z" fill="url(#paint10_linear)"/>
<path d="M38.4307 46.9627C39.4324 47.3494 40.3929 47.8225 41.3144 48.3655C43.7436 44.9758 46.2571 41.6437 48.5114 38.1305C47.6249 37.4662 46.7322 36.8038 45.8292 36.1477C42.4868 41.2549 39.7183 45.1506 38.4307 46.9627Z" fill="url(#paint11_linear)"/>
<path d="M41.3159 48.3654C42.3978 49.0051 43.4242 49.7394 44.3889 50.5601C46.7584 47.1251 48.9572 43.6695 51.3781 40.286C50.4238 39.5681 49.4694 38.8482 48.5109 38.1304C46.2565 41.6456 43.7451 44.9756 41.3159 48.3654Z" fill="url(#paint12_linear)"/>
<path d="M37.1011 53.5059C37.1072 55.0465 37.3191 56.3197 37.7613 56.6344C38.1809 56.9326 39.339 56.7537 40.6944 56.3094C39.7997 55.028 38.5944 53.9625 37.1011 53.5059Z" fill="#282828"/>
<path d="M37.1012 53.5059C38.5945 53.9626 39.7999 55.028 40.6967 56.3095C42.9572 55.571 45.7669 54.1004 46.6431 52.8663C46.6595 52.8416 46.678 52.8169 46.6945 52.7943C44.3723 50.252 41.612 48.1889 38.432 46.9651C38.4218 46.9795 38.4115 46.9959 38.4012 47.0103C37.5558 48.1992 37.091 51.1632 37.1012 53.5059Z" fill="white"/>
<path d="M46.98 34.3809C49.8452 36.4706 52.6899 38.725 55.5901 40.8168C55.6003 40.8045 55.6106 40.7921 55.6209 40.7777C56.2585 39.9612 56.744 39.2042 57.1101 38.5049C54.1893 36.5365 51.3118 34.5043 48.356 32.5852C47.9035 33.083 47.4448 33.6774 46.98 34.3809Z" fill="#282828"/>
<path d="M57.1115 38.5052C59.2259 34.4408 57.1567 32.2955 55.7642 31.3061C54.347 30.3003 51.5682 29.023 48.3574 32.5855C51.3131 34.5045 54.1887 36.5367 57.1115 38.5052Z" fill="url(#paint13_linear)"/>
<defs>
<linearGradient id="paint0_linear" x1="24.9317" y1="-34.7031" x2="90.5531" y2="-13.5745" gradientUnits="userSpaceOnUse">
<stop stop-color="#8B44FF"/>
<stop offset="1" stop-color="#6598FB"/>
</linearGradient>
<linearGradient id="paint1_linear" x1="33.7869" y1="34.4595" x2="35.1373" y2="37.8852" gradientUnits="userSpaceOnUse">
<stop stop-color="#8B44FF"/>
<stop offset="1" stop-color="#6598FB"/>
</linearGradient>
<linearGradient id="paint2_linear" x1="30.3937" y1="30.3999" x2="32.1858" y2="33.4139" gradientUnits="userSpaceOnUse">
<stop stop-color="#8B44FF"/>
<stop offset="1" stop-color="#6598FB"/>
</linearGradient>
<linearGradient id="paint3_linear" x1="32.5334" y1="27.2458" x2="33.8839" y2="30.6716" gradientUnits="userSpaceOnUse">
<stop stop-color="#8B44FF"/>
<stop offset="1" stop-color="#6598FB"/>
</linearGradient>
<linearGradient id="paint4_linear" x1="28.9182" y1="23.0151" x2="30.7538" y2="25.9707" gradientUnits="userSpaceOnUse">
<stop stop-color="#8B44FF"/>
<stop offset="1" stop-color="#6598FB"/>
</linearGradient>
<linearGradient id="paint5_linear" x1="31.2444" y1="19.8286" x2="32.5948" y2="23.2543" gradientUnits="userSpaceOnUse">
<stop stop-color="#8B44FF"/>
<stop offset="1" stop-color="#6598FB"/>
</linearGradient>
<linearGradient id="paint6_linear" x1="32.0049" y1="37.3829" x2="33.7076" y2="40.5039" gradientUnits="userSpaceOnUse">
<stop stop-color="#8B44FF"/>
<stop offset="1" stop-color="#6598FB"/>
</linearGradient>
<linearGradient id="paint7_linear" x1="23.3103" y1="35.5623" x2="26.883" y2="36.1922" gradientUnits="userSpaceOnUse">
<stop stop-color="#8B44FF"/>
<stop offset="1" stop-color="#6598FB"/>
</linearGradient>
<linearGradient id="paint8_linear" x1="21.7225" y1="27.9438" x2="24.6636" y2="28.2911" gradientUnits="userSpaceOnUse">
<stop stop-color="#8B44FF"/>
<stop offset="1" stop-color="#6598FB"/>
</linearGradient>
<linearGradient id="paint9_linear" x1="20.4849" y1="19.9739" x2="23.9997" y2="20.2914" gradientUnits="userSpaceOnUse">
<stop stop-color="#8B44FF"/>
<stop offset="1" stop-color="#6598FB"/>
</linearGradient>
<linearGradient id="paint10_linear" x1="53.3872" y1="41.0009" x2="42.3981" y2="49.5125" gradientUnits="userSpaceOnUse">
<stop stop-color="#1FABDF"/>
<stop offset="1" stop-color="#42EE9F"/>
</linearGradient>
<linearGradient id="paint11_linear" x1="47.5753" y1="36.8459" x2="36.7429" y2="45.5724" gradientUnits="userSpaceOnUse">
<stop stop-color="#1FABDF"/>
<stop offset="1" stop-color="#42EE9F"/>
</linearGradient>
<linearGradient id="paint12_linear" x1="50.4438" y1="38.8406" x2="39.47" y2="47.5144" gradientUnits="userSpaceOnUse">
<stop stop-color="#6DD8FF"/>
<stop offset="1" stop-color="#68FFBA"/>
</linearGradient>
<linearGradient id="paint13_linear" x1="57.1197" y1="30.7054" x2="49.6772" y2="39.1901" gradientUnits="userSpaceOnUse">
<stop stop-color="#1FABDF"/>
<stop offset="1" stop-color="#42EE9F"/>
</linearGradient>
</defs>
</svg>
