<svg width="67" height="67" viewBox="0 0 67 67" fill="none" xmlns="http://www.w3.org/2000/svg">
<path d="M33.5003 1.41699C51.2193 1.41699 65.5837 15.7813 65.5837 33.5003C65.5837 51.2193 51.2193 65.5837 33.5003 65.5837C15.7813 65.5837 1.41699 51.2193 1.41699 33.5003C1.41699 15.7813 15.7813 1.41699 33.5003 1.41699Z" fill="url(#paint0_linear)" stroke="#FFDBB0" stroke-width="2.5"/>
<g filter="url(#filter0_d)">
<path fill-rule="evenodd" clip-rule="evenodd" d="M26.4962 50.0496V17.7453C26.4962 15.6795 28.9988 15.4829 28.9988 15.4829L48.6882 15.4829C48.6882 15.4829 51.1917 15.6803 51.1917 17.7453V50.0496C51.1917 50.0496 51.2438 52.1154 48.8605 52.1154L28.8258 52.1154C26.4433 52.1154 26.4962 50.0496 26.4962 50.0496Z" fill="url(#paint1_linear)"/>
<path fill-rule="evenodd" clip-rule="evenodd" d="M27.9126 19.8164V23.4885V23.8178V24.1471V25.0057V47.7816H49.7745V43.314V42.9553V42.5503V39.8057V19.8164L27.9126 19.8164Z" fill="white"/>
<path d="M41.665 17.9395H36.0229V18.2713H41.665V17.9395Z" fill="white"/>
<path fill-rule="evenodd" clip-rule="evenodd" d="M39.896 49.806C39.896 50.2991 39.4969 50.6982 39.0038 50.6982H38.6837C38.1906 50.6982 37.7915 50.2991 37.7915 49.806C37.7915 49.3129 38.1914 48.9138 38.6837 48.9138H39.0038C39.4969 48.9138 39.896 49.3137 39.896 49.806Z" fill="white"/>
<path d="M49.7743 19.354L31.4014 19.354V47.9275H49.7743V19.354Z" fill="white"/>
<path d="M31.4013 19.354L13.0283 19.354V47.9275H31.4013V19.354Z" fill="url(#paint2_linear)"/>
<g opacity="0.3">
<path opacity="0.3" d="M42.1183 25.3962L33.8105 25.3962V34.5113H42.1183V25.3962Z" fill="#FF577F"/>
<path opacity="0.3" d="M47.3655 35.7102L33.8105 35.7102V37.1493L47.3655 37.1493V35.7102Z" fill="#FF577F"/>
<path opacity="0.3" d="M47.3655 38.2693L33.8105 38.2693V39.7084L47.3655 39.7084V38.2693Z" fill="#FF577F"/>
<path opacity="0.3" d="M47.3655 40.8274L33.8105 40.8274V42.2665L47.3655 42.2665V40.8274Z" fill="#FF577F"/>
<path opacity="0.3" d="M47.3655 43.3865L33.8105 43.3865V44.8256L47.3655 44.8256V43.3865Z" fill="#FF577F"/>
<path opacity="0.3" d="M47.3664 25.3962H42.9937V26.8353H47.3664V25.3962Z" fill="#FF577F"/>
<path opacity="0.3" d="M47.3664 27.9543H42.9937V29.3934H47.3664V27.9543Z" fill="#FF577F"/>
<path opacity="0.3" d="M47.3664 30.5134H42.9937V31.9525H47.3664V30.5134Z" fill="#FF577F"/>
<path opacity="0.3" d="M47.3664 33.072H42.9937V34.5111H47.3664V33.072Z" fill="#FF577F"/>
<path opacity="0.3" d="M44.9781 22.457L36.1982 22.457V23.8961L44.9781 23.8961V22.457Z" fill="#FF577F"/>
</g>
<path d="M28.9933 25.396H20.6855V34.5111H28.9933V25.396Z" fill="#52504E"/>
<path opacity="0.3" d="M28.992 35.71H15.437V37.1491H28.992V35.71Z" fill="white"/>
<path opacity="0.3" d="M28.992 38.269H15.437V39.7081H28.992V38.269Z" fill="white"/>
<path opacity="0.3" d="M28.993 40.8271H15.438V42.2662H28.993V40.8271Z" fill="white"/>
<path opacity="0.3" d="M28.992 43.386H15.437V44.8251H28.992V43.386Z" fill="white"/>
<path opacity="0.3" d="M19.8107 25.396H15.438V26.8351H19.8107V25.396Z" fill="white"/>
<path opacity="0.3" d="M19.8097 27.9543H15.437V29.3934H19.8097V27.9543Z" fill="white"/>
<path opacity="0.3" d="M19.8107 30.5132H15.438V31.9523H19.8107V30.5132Z" fill="white"/>
<path opacity="0.3" d="M19.8097 33.0708H15.437V34.5099H19.8097V33.0708Z" fill="white"/>
<path d="M26.6046 22.4565H17.8247V23.8956H26.6046V22.4565Z" fill="#52504E"/>
<path fill-rule="evenodd" clip-rule="evenodd" d="M31.4015 47.9275C29.0567 46.0969 26.7271 44.7771 24.3665 44.1C22.0385 43.4321 19.6779 42.9045 17.334 42.8759C17.334 38.1117 17.334 33.3517 17.334 28.5917C17.334 23.8275 17.334 19.0675 17.334 14.3C19.6779 14.1294 22.0822 14.2151 24.3665 15.0376C26.7851 15.9087 29.0567 17.5805 31.4015 19.3582C31.4015 24.1224 31.4015 28.8824 31.4015 33.6424C31.4015 38.4074 31.4015 43.1674 31.4015 47.9275Z" fill="white"/>
<path opacity="0.3" fill-rule="evenodd" clip-rule="evenodd" d="M29.0917 36.7013C27.5921 35.7898 26.111 35.0127 24.5946 34.5591C23.1127 34.1155 21.598 33.7753 20.1001 33.4594C20.1001 33.945 20.1001 34.4314 20.1001 34.9136C21.598 35.2362 23.1119 35.5849 24.5946 36.02C26.1102 36.4653 27.5921 37.2298 29.0917 38.1379C29.0917 37.6624 29.0917 37.1802 29.0917 36.7013ZM29.0917 39.2553C27.5921 38.3547 26.1093 37.5986 24.5946 37.1592C23.111 36.7291 21.598 36.3754 20.1001 36.0419C20.1001 36.5283 20.1001 37.0139 20.1001 37.4961C21.598 37.8363 23.1102 38.1992 24.5946 38.6201C26.1085 39.0503 27.5921 39.7946 29.0917 40.6918C29.0917 40.2163 29.0917 39.7341 29.0917 39.2553ZM29.0917 41.8092C27.5921 40.9186 26.1068 40.181 24.5946 39.7585C23.1093 39.3435 21.598 38.9747 20.1001 38.6235C20.1001 39.1091 20.1001 39.5955 20.1001 40.0777C21.598 40.4398 23.1093 40.812 24.5946 41.2202C26.1068 41.6353 27.5921 42.3586 29.0917 43.2457C29.0917 42.7702 29.0917 42.288 29.0917 41.8092ZM29.0917 31.5154C27.5921 30.5787 26.1152 29.7613 24.5946 29.2774C23.1161 28.8069 21.598 28.4936 20.1001 28.2172C20.1001 28.7028 20.1001 29.1892 20.1001 29.6714C21.598 29.9554 23.1152 30.2788 24.5946 30.7425C26.1135 31.2189 27.5921 32.0228 29.0917 32.952C29.0917 32.4765 29.0917 31.9976 29.0917 31.5154ZM29.0917 28.9615C27.5921 28.0147 26.1177 27.178 24.5946 26.6773C23.1177 26.1917 21.598 25.8935 20.1001 25.6347C20.1001 26.1203 20.1001 26.6067 20.1001 27.0889C21.598 27.3552 23.1161 27.6644 24.5946 28.1424C26.1152 28.6339 27.5921 29.458 29.0917 30.3981C29.0917 29.9226 29.0917 29.4437 29.0917 28.9615ZM29.0917 26.4076C27.5921 25.4499 26.1194 24.593 24.5946 24.0772C23.1194 23.5782 21.598 23.29 20.1001 23.0523C20.1001 23.5378 20.1001 24.0242 20.1001 24.5065C21.598 24.7551 23.1186 25.0475 24.5946 25.5389C26.1186 26.0455 27.5921 26.894 29.0917 27.845C29.0917 27.3687 29.0917 26.8898 29.0917 26.4076ZM29.0917 23.8537C27.5921 22.8851 26.1211 22.008 24.5946 21.4771C23.1211 20.9646 21.598 20.6899 20.1001 20.4698C20.1001 20.9554 20.1001 21.4418 20.1001 21.924C21.598 22.1542 23.1203 22.4339 24.5946 22.9388C26.1203 23.4605 27.5921 24.3292 29.0917 25.2903C29.0917 24.8148 29.0917 24.3359 29.0917 23.8537ZM27.2897 19.7633C26.3908 19.2668 25.5028 18.8072 24.5946 18.4897C23.7075 18.1797 22.7993 17.9613 21.9021 17.7588C21.9021 18.2486 21.9021 18.7375 21.9021 19.2239C22.7993 19.4297 23.7066 19.644 24.5946 19.9514C25.5028 20.2656 26.3908 20.7176 27.2897 21.2074C27.2897 20.7285 27.2897 20.2455 27.2897 19.7633ZM29.0917 34.1474C27.5921 33.2217 26.1119 32.4278 24.5946 31.959C23.1135 31.5011 21.598 31.1718 20.1001 30.8769C20.1001 31.3625 20.1001 31.8489 20.1001 32.3312C21.598 32.6361 23.1127 32.9713 24.5946 33.4199C26.1119 33.8795 27.5921 34.6649 29.0917 35.584C29.0917 35.1085 29.0917 34.6263 29.0917 34.1474Z" fill="#FFBACC"/>
<path fill-rule="evenodd" clip-rule="evenodd" d="M31.4014 49.543V19.354H32.9732V49.543L32.1869 48.9297L31.4014 49.543Z" fill="url(#paint3_linear)"/>
</g>
<defs>
<filter id="filter0_d" x="9.69499" y="12.5606" width="44.8302" height="44.5548" filterUnits="userSpaceOnUse" color-interpolation-filters="sRGB">
<feFlood flood-opacity="0" result="BackgroundImageFix"/>
<feColorMatrix in="SourceAlpha" type="matrix" values="0 0 0 0 0 0 0 0 0 0 0 0 0 0 0 0 0 0 127 0"/>
<feOffset dy="1.66667"/>
<feGaussianBlur stdDeviation="1.66667"/>
<feColorMatrix type="matrix" values="0 0 0 0 0.466667 0 0 0 0 0.271522 0 0 0 0 0.0913889 0 0 0 0.1 0"/>
<feBlend mode="normal" in2="BackgroundImageFix" result="effect1_dropShadow"/>
<feBlend mode="normal" in="SourceGraphic" in2="effect1_dropShadow" result="shape"/>
</filter>
<linearGradient id="paint0_linear" x1="24.5987" y1="-34.7034" x2="90.22" y2="-13.5748" gradientUnits="userSpaceOnUse">
<stop stop-color="#FF9344"/>
<stop offset="1" stop-color="#FCC400"/>
</linearGradient>
<linearGradient id="paint1_linear" x1="29.4949" y1="52.1154" x2="65.3243" y2="26.2837" gradientUnits="userSpaceOnUse">
<stop stop-color="#FF842C"/>
<stop offset="1" stop-color="#FF5F5F"/>
</linearGradient>
<linearGradient id="paint2_linear" x1="40.5562" y1="6.11588" x2="-5.80769" y2="36.4325" gradientUnits="userSpaceOnUse">
<stop stop-color="white"/>
<stop offset="1" stop-color="white" stop-opacity="0"/>
</linearGradient>
<linearGradient id="paint3_linear" x1="31.5922" y1="49.543" x2="35.0473" y2="49.3506" gradientUnits="userSpaceOnUse">
<stop stop-color="#FF2C91"/>
<stop offset="1" stop-color="#FF5F5F"/>
</linearGradient>
</defs>
</svg>
